<svg xmlns="http://www.w3.org/2000/svg" xmlns:xlink="http://www.w3.org/1999/xlink" id="body_99" preserveAspectRatio="xMinYMin meet" viewBox="0 0 816 1056"><defs><clipPath id="1"><path d="M0 792L0 0L0 0L612 0L612 0L612 792L612 792L0 792z" /></clipPath><clipPath id="2"><path d="M0 792L612 792L612 792L612 0L612 0L0 0z" /></clipPath></defs><g transform="matrix(1.333333 0 0 1.333333 0 0)"><g><g clip-path="url(#1)"><g clip-path="url(#2)"><path transform="matrix(1 0 0 -1 0 792)" d="M72 678L540 678L540 678L540 720L540 720L72 720z" stroke="none" fill="#E0E0E0" fill-rule="winding" /><path transform="matrix(1 0 0 -1 0 792)" d="M72 678L540 678L540 678L540 720L540 720L72 720z" stroke="#AFAFAF" stroke-width="0.5" fill="none" /><path transform="matrix(1 0 0 -1 0 792)" d="M72 545L540 545L540 545L540 596L540 596L72 596z" stroke="none" fill="#E0E0E0" fill-rule="winding" /><path transform="matrix(1 0 0 -1 0 792)" d="M72 545L540 545L540 545L540 596L540 596L72 596z" stroke="#AFAFAF" stroke-width="0.5" fill="none" /><path transform="matrix(1 0 0 -1 0 792)" d="M225 326L387 326L387 326L387 494L387 494L225 494z" stroke="#000000" stroke-width="1" fill="none" /><g transform="matrix(0.2163979 0 0 0.2180157 225.5 298.5)"><g transform="matrix(1 0 0 1 0 0)"><image x="0" y="0" xlink:href="img_149.png" width="744" height="766" /></g></g><path transform="matrix(1 0 0 -1 0 792)" d="M201.5 73L410.5 73L410.5 73L410.5 289L410.5 289L201.5 289z" stroke="#000000" stroke-width="1" fill="none" /><g transform="matrix(0.2788204 0 0 0.2784974 202 503.5)"><g transform="matrix(1 0 0 1 0 0)"><image x="0" y="0" xlink:href="img_150.png" width="746" height="772" /></g></g><g transform="matrix(0.09 0 0 0.09 72 738)"><g transform="matrix(1 0 0 1 0 0)"><image x="0" y="0" xlink:href="img_03.png" width="200" height="200" /></g></g></g></g></g></g></svg>