<svg xmlns="http://www.w3.org/2000/svg" xmlns:xlink="http://www.w3.org/1999/xlink" id="body_42" preserveAspectRatio="xMinYMin meet" viewBox="0 0 816 1056"><defs><clipPath id="1"><path d="M0 792L0 0L0 0L612 0L612 0L612 792L612 792L0 792z" /></clipPath><clipPath id="2"><path d="M0 792L612 792L612 792L612 0L612 0L0 0z" /></clipPath></defs><g transform="matrix(1.333333 0 0 1.333333 0 0)"><g><g clip-path="url(#1)"><g clip-path="url(#2)"><path transform="matrix(1 0 0 -1 0 792)" d="M166.74 421.5L323.74 421.5" stroke="#21B8E7" stroke-width="1" fill="none" /><path transform="matrix(1 0 0 -1 0 792)" d="M190 270L422 270L422 270L422 412L422 412L190 412z" stroke="#000000" stroke-width="1" fill="none" /><g transform="matrix(0.0944399 0 0 0.09375 190.5 380.5)"><g transform="matrix(1 0 0 1 0 0)"><image x="0" y="0" xlink:href="img_63.png" width="2446" height="1504" /></g></g><path transform="matrix(1 0 0 -1 0 792)" d="M173.868 226.5L382.868 226.5" stroke="#21B8E7" stroke-width="1" fill="none" /><path transform="matrix(1 0 0 -1 0 792)" d="M248.796 185.5L438.796 185.5" stroke="#21B8E7" stroke-width="1" fill="none" /><g transform="matrix(0.09 0 0 0.09 72 738)"><g transform="matrix(1 0 0 1 0 0)"><image x="0" y="0" xlink:href="img_03.png" width="200" height="200" /></g></g></g></g></g></g></svg>