<svg xmlns="http://www.w3.org/2000/svg" xmlns:xlink="http://www.w3.org/1999/xlink" id="body_229" preserveAspectRatio="xMinYMin meet" viewBox="0 0 816 1056"><defs><clipPath id="1"><path d="M0 792L0 0L0 0L612 0L612 0L612 792L612 792L0 792z" /></clipPath><clipPath id="2"><path d="M0 792L612 792L612 792L612 0L612 0L0 0z" /></clipPath></defs><g transform="matrix(1.333333 0 0 1.333333 0 0)"><g><g clip-path="url(#1)"><g clip-path="url(#2)"><path transform="matrix(1 0 0 -1 0 792)" d="M189.5 493L422.5 493L422.5 493L422.5 695L422.5 695L189.5 695z" stroke="#000000" stroke-width="1" fill="none" /><g transform="matrix(0.5550239 0 0 0.5552486 190 97.5)"><g transform="matrix(1 0 0 1 0 0)"><image x="0" y="0" xlink:href="img_353.png" width="418" height="362" /></g></g><path transform="matrix(1 0 0 -1 0 792)" d="M72 139L540 139L540 139L540 209L540 209L72 209z" stroke="none" fill="#E0E0E0" fill-rule="winding" /><path transform="matrix(1 0 0 -1 0 792)" d="M72 139L540 139L540 139L540 209L540 209L72 209z" stroke="#AFAFAF" stroke-width="0.5" fill="none" /><g transform="matrix(0.08125 0 0 0.08125 248.4463 622)"><g transform="matrix(1 0 0 1 0 0)"><image x="0" y="0" xlink:href="img_351.png" width="160" height="160" /></g></g><g transform="matrix(0.09 0 0 0.09 72 738)"><g transform="matrix(1 0 0 1 0 0)"><image x="0" y="0" xlink:href="img_03.png" width="200" height="200" /></g></g></g></g></g></g></svg>