<svg xmlns="http://www.w3.org/2000/svg" xmlns:xlink="http://www.w3.org/1999/xlink" id="body_336" preserveAspectRatio="xMinYMin meet" viewBox="0 0 816 1056"><defs><clipPath id="1"><path d="M0 792L0 0L0 0L612 0L612 0L612 792L612 792L0 792z" /></clipPath><clipPath id="2"><path d="M0 792L612 792L612 792L612 0L612 0L0 0z" /></clipPath></defs><g transform="matrix(1.333333 0 0 1.333333 0 0)"><g><g clip-path="url(#1)"><g clip-path="url(#2)"><path transform="matrix(1 0 0 -1 0 792)" d="M289.164 667.5L385.164 667.5" stroke="#21B8E7" stroke-width="1" fill="none" /><path transform="matrix(1 0 0 -1 0 792)" d="M436.848 651.5L477.848 651.5" stroke="#21B8E7" stroke-width="1" fill="none" /><path transform="matrix(1 0 0 -1 0 792)" d="M72 635.5L220 635.5" stroke="#21B8E7" stroke-width="1" fill="none" /><path transform="matrix(1 0 0 -1 0 792)" d="M229.5 435L382.5 435L382.5 435L382.5 567L382.5 567L229.5 567z" stroke="#000000" stroke-width="1" fill="none" /><g transform="matrix(0.248366 0 0 0.2490494 230 225.5)"><g transform="matrix(1 0 0 1 0 0)"><image x="0" y="0" xlink:href="img_520.png" width="612" height="526" /></g></g><path transform="matrix(1 0 0 -1 0 792)" d="M72 378L540 378L540 378L540 398L540 398L72 398z" stroke="none" fill="#E0E0E0" fill-rule="winding" /><path transform="matrix(1 0 0 -1 0 792)" d="M72 378L540 378L540 378L540 398L540 398L72 398z" stroke="#AFAFAF" stroke-width="0.5" fill="none" /><g transform="matrix(0.09 0 0 0.09 72 738)"><g transform="matrix(1 0 0 1 0 0)"><image x="0" y="0" xlink:href="img_03.png" width="200" height="200" /></g></g></g></g></g></g></svg>