<svg xmlns="http://www.w3.org/2000/svg" xmlns:xlink="http://www.w3.org/1999/xlink" id="body_279" preserveAspectRatio="xMinYMin meet" viewBox="0 0 816 1056"><defs><clipPath id="1"><path d="M0 792L0 0L0 0L612 0L612 0L612 792L612 792L0 792z" /></clipPath><clipPath id="2"><path d="M0 792L612 792L612 792L612 0L612 0L0 0z" /></clipPath></defs><g transform="matrix(1.333333 0 0 1.333333 0 0)"><g><g clip-path="url(#1)"><g clip-path="url(#2)"><path transform="matrix(1 0 0 -1 0 792)" d="M72 656L540 656L540 656L540 720L540 720L72 720z" stroke="none" fill="#E0E0E0" fill-rule="winding" /><path transform="matrix(1 0 0 -1 0 792)" d="M72 656L540 656L540 656L540 720L540 720L72 720z" stroke="#AFAFAF" stroke-width="0.5" fill="none" /><path transform="matrix(1 0 0 -1 0 792)" d="M72 312L540 312L540 312L540 354L540 354L72 354z" stroke="none" fill="#E0E0E0" fill-rule="winding" /><path transform="matrix(1 0 0 -1 0 792)" d="M72 312L540 312L540 312L540 354L540 354L72 354z" stroke="#AFAFAF" stroke-width="0.5" fill="none" /><path transform="matrix(1 0 0 -1 0 792)" d="M72 176L540 176L540 176L540 240L540 240L72 240z" stroke="none" fill="#E0E0E0" fill-rule="winding" /><path transform="matrix(1 0 0 -1 0 792)" d="M72 176L540 176L540 176L540 240L540 240L72 240z" stroke="#AFAFAF" stroke-width="0.5" fill="none" /><path transform="matrix(1 0 0 -1 0 792)" d="M72 84L540 84L540 84L540 104L540 104L72 104z" stroke="none" fill="#E0E0E0" fill-rule="winding" /><path transform="matrix(1 0 0 -1 0 792)" d="M72 84L540 84L540 84L540 104L540 104L72 104z" stroke="#AFAFAF" stroke-width="0.5" fill="none" /><g transform="matrix(0.09 0 0 0.09 72 738)"><g transform="matrix(1 0 0 1 0 0)"><image x="0" y="0" xlink:href="img_03.png" width="200" height="200" /></g></g></g></g></g></g></svg>