<svg xmlns="http://www.w3.org/2000/svg" xmlns:xlink="http://www.w3.org/1999/xlink" id="body_22" preserveAspectRatio="xMinYMin meet" viewBox="0 0 816 1056"><defs><clipPath id="1"><path d="M0 792L0 0L0 0L612 0L612 0L612 792L612 792L0 792z" /></clipPath><clipPath id="2"><path d="M0 792L612 792L612 792L612 0L612 0L0 0z" /></clipPath><clipPath id="3"><path d="M72 216L540 216L540 216L540 54L540 54L72 54z" /></clipPath><clipPath id="4"><path d="M0 792L612 792L612 792L612 0L612 0L0 0z" /></clipPath></defs><g transform="matrix(1.333333 0 0 1.333333 0 0)"><g><g clip-path="url(#1)"><g clip-path="url(#2)"><path transform="matrix(1 0 0 -1 0 792)" d="M72 576L540 576L540 576L540 738L540 738L72 738z" stroke="none" fill="#21B8E7" fill-rule="winding" /></g><g clip-path="url(#3)"></g><g clip-path="url(#4)"><path transform="matrix(1 0 0 -1 0 792)" d="M72 382L540 382L540 382L540 448L540 448L72 448z" stroke="none" fill="#E0E0E0" fill-rule="winding" /><path transform="matrix(1 0 0 -1 0 792)" d="M72 382L540 382L540 382L540 448L540 448L72 448z" stroke="#AFAFAF" stroke-width="0.5" fill="none" /><g transform="matrix(0.2985714 0 0 0.3007519 201.5 420)"><g transform="matrix(1 0 0 1 0 0)"><image x="0" y="0" xlink:href="img_31.png" width="700" height="399" /></g></g><g transform="matrix(0.09 0 0 0.09 72 738)"><g transform="matrix(1 0 0 1 0 0)"><image x="0" y="0" xlink:href="img_03.png" width="200" height="200" /></g></g></g></g></g></g></svg>