<svg xmlns="http://www.w3.org/2000/svg" xmlns:xlink="http://www.w3.org/1999/xlink" id="body_228" preserveAspectRatio="xMinYMin meet" viewBox="0 0 816 1056"><defs><clipPath id="1"><path d="M0 792L0 0L0 0L612 0L612 0L612 792L612 792L0 792z" /></clipPath><clipPath id="2"><path d="M0 792L612 792L612 792L612 0L612 0L0 0z" /></clipPath></defs><g transform="matrix(1.333333 0 0 1.333333 0 0)"><g><g clip-path="url(#1)"><g clip-path="url(#2)"><path transform="matrix(1 0 0 -1 0 792)" d="M72 689L540 689L540 689L540 720L540 720L72 720z" stroke="none" fill="#E0E0E0" fill-rule="winding" /><path transform="matrix(1 0 0 -1 0 792)" d="M72 689L540 689L540 689L540 720L540 720L72 720z" stroke="#AFAFAF" stroke-width="0.5" fill="none" /><path transform="matrix(1 0 0 -1 0 792)" d="M72 622L540 622L540 622L540 642L540 642L72 642z" stroke="none" fill="#E0E0E0" fill-rule="winding" /><path transform="matrix(1 0 0 -1 0 792)" d="M72 622L540 622L540 622L540 642L540 642L72 642z" stroke="#AFAFAF" stroke-width="0.5" fill="none" /><path transform="matrix(1 0 0 -1 0 792)" d="M72 511L540 511L540 511L540 575L540 575L72 575z" stroke="none" fill="#E0E0E0" fill-rule="winding" /><path transform="matrix(1 0 0 -1 0 792)" d="M72 511L540 511L540 511L540 575L540 575L72 575z" stroke="#AFAFAF" stroke-width="0.5" fill="none" /><path transform="matrix(1 0 0 -1 0 792)" d="M72 281L540 281L540 281L540 323L540 323L72 323z" stroke="none" fill="#E0E0E0" fill-rule="winding" /><path transform="matrix(1 0 0 -1 0 792)" d="M72 281L540 281L540 281L540 323L540 323L72 323z" stroke="#AFAFAF" stroke-width="0.5" fill="none" /><path transform="matrix(1 0 0 -1 0 792)" d="M72 76L540 76L540 76L540 160L540 160L72 160z" stroke="none" fill="#E0E0E0" fill-rule="winding" /><path transform="matrix(1 0 0 -1 0 792)" d="M72 76L540 76L540 76L540 160L540 160L72 160z" stroke="#AFAFAF" stroke-width="0.5" fill="none" /><g transform="matrix(0.08125 0 0 0.08125 248.4463 649)"><g transform="matrix(1 0 0 1 0 0)"><image x="0" y="0" xlink:href="img_351.png" width="160" height="160" /></g></g><g transform="matrix(0.08125 0 0 0.08125 248.4463 666)"><g transform="matrix(1 0 0 1 0 0)"><image x="0" y="0" xlink:href="img_351.png" width="160" height="160" /></g></g><g transform="matrix(0.08125 0 0 0.08125 248.4463 683)"><g transform="matrix(1 0 0 1 0 0)"><image x="0" y="0" xlink:href="img_351.png" width="160" height="160" /></g></g><g transform="matrix(0.09 0 0 0.09 72 738)"><g transform="matrix(1 0 0 1 0 0)"><image x="0" y="0" xlink:href="img_03.png" width="200" height="200" /></g></g></g></g></g></g></svg>