<svg xmlns="http://www.w3.org/2000/svg" xmlns:xlink="http://www.w3.org/1999/xlink" id="body_300" preserveAspectRatio="xMinYMin meet" viewBox="0 0 816 1056"><defs><clipPath id="1"><path d="M0 792L0 0L0 0L612 0L612 0L612 792L612 792L0 792z" /></clipPath><clipPath id="2"><path d="M0 792L612 792L612 792L612 0L612 0L0 0z" /></clipPath></defs><g transform="matrix(1.333333 0 0 1.333333 0 0)"><g><g clip-path="url(#1)"><g clip-path="url(#2)"><g transform="matrix(0.3515625 0 0 0.3548387 283.5 97)"><g transform="matrix(1 0 0 1 0 0)"><image x="0" y="0" xlink:href="img_466.png" width="128" height="124" /></g></g><g transform="matrix(0.290625 0 0 0.2922535 213 178)"><g transform="matrix(1 0 0 1 0 0)"><image x="0" y="0" xlink:href="img_467.png" width="640" height="1136" /></g></g><g transform="matrix(0.09 0 0 0.09 72 738)"><g transform="matrix(1 0 0 1 0 0)"><image x="0" y="0" xlink:href="img_03.png" width="200" height="200" /></g></g></g></g></g></g></svg>