<svg xmlns="http://www.w3.org/2000/svg" xmlns:xlink="http://www.w3.org/1999/xlink" id="body_221" preserveAspectRatio="xMinYMin meet" viewBox="0 0 816 1056"><defs><clipPath id="1"><path d="M0 792L0 0L0 0L612 0L612 0L612 792L612 792L0 792z" /></clipPath><clipPath id="2"><path d="M0 792L612 792L612 792L612 0L612 0L0 0z" /></clipPath></defs><g transform="matrix(1.333333 0 0 1.333333 0 0)"><g><g clip-path="url(#1)"><g clip-path="url(#2)"><path transform="matrix(1 0 0 -1 0 792)" d="M225 465L387 465L387 465L387 535L387 535L225 535z" stroke="#000000" stroke-width="1" fill="none" /><g transform="matrix(0.5833334 0 0 0.579832 225.5 257.5)"><g transform="matrix(1 0 0 1 0 0)"><image x="0" y="0" xlink:href="img_339.png" width="276" height="119" /></g></g><path transform="matrix(1 0 0 -1 0 792)" d="M190 364L422 364L422 364L422 412L422 412L190 412z" stroke="#000000" stroke-width="1" fill="none" /><g transform="matrix(0.511062 0 0 0.4947369 190.5 380.5)"><g transform="matrix(1 0 0 1 0 0)"><image x="0" y="0" xlink:href="img_340.png" width="452" height="95" /></g></g><path transform="matrix(1 0 0 -1 0 792)" d="M119.5 74L492.5 74L492.5 74L492.5 278L492.5 278L119.5 278z" stroke="#000000" stroke-width="1" fill="none" /><g transform="matrix(0.8175824 0 0 0.815261 120 514.5)"><g transform="matrix(1 0 0 1 0 0)"><image x="0" y="0" xlink:href="img_341.png" width="455" height="249" /></g></g><g transform="matrix(0.09 0 0 0.09 72 738)"><g transform="matrix(1 0 0 1 0 0)"><image x="0" y="0" xlink:href="img_03.png" width="200" height="200" /></g></g></g></g></g></g></svg>