<svg xmlns="http://www.w3.org/2000/svg" xmlns:xlink="http://www.w3.org/1999/xlink" id="body_89" preserveAspectRatio="xMinYMin meet" viewBox="0 0 816 1056"><defs><clipPath id="1"><path d="M0 792L0 0L0 0L612 0L612 0L612 792L612 792L0 792z" /></clipPath><clipPath id="2"><path d="M0 792L612 792L612 792L612 0L612 0L0 0z" /></clipPath></defs><g transform="matrix(1.333333 0 0 1.333333 0 0)"><g><g clip-path="url(#1)"><g clip-path="url(#2)"><path transform="matrix(1 0 0 -1 0 792)" d="M154.5 524L457.5 524L457.5 524L457.5 720L457.5 720L154.5 720z" stroke="#000000" stroke-width="1" fill="none" /><g transform="matrix(0.4037433 0 0 0.4012346 155 72.5)"><g transform="matrix(1 0 0 1 0 0)"><image x="0" y="0" xlink:href="img_131.png" width="748" height="486" /></g></g><g transform="matrix(0.3541034 0 0 0.3539326 73 338)"><g transform="matrix(1 0 0 1 0 0)"><image x="0" y="0" xlink:href="img_132.png" width="1316" height="712" /></g></g><g transform="matrix(0.09 0 0 0.09 72 738)"><g transform="matrix(1 0 0 1 0 0)"><image x="0" y="0" xlink:href="img_03.png" width="200" height="200" /></g></g></g></g></g></g></svg>