<svg xmlns="http://www.w3.org/2000/svg" xmlns:xlink="http://www.w3.org/1999/xlink" id="body_324" preserveAspectRatio="xMinYMin meet" viewBox="0 0 816 1056"><defs><clipPath id="1"><path d="M0 792L0 0L0 0L612 0L612 0L612 792L612 792L0 792z" /></clipPath><clipPath id="2"><path d="M0 792L612 792L612 792L612 0L612 0L0 0z" /></clipPath></defs><g transform="matrix(1.333333 0 0 1.333333 0 0)"><g><g clip-path="url(#1)"><g clip-path="url(#2)"><path transform="matrix(1 0 0 -1 0 792)" d="M72 444L540 444L540 444L540 464L540 464L72 464z" stroke="none" fill="#E0E0E0" fill-rule="winding" /><path transform="matrix(1 0 0 -1 0 792)" d="M72 444L540 444L540 444L540 464L540 464L72 464z" stroke="#AFAFAF" stroke-width="0.5" fill="none" /><path transform="matrix(1 0 0 -1 0 792)" d="M131.5 361L480.5 361L480.5 361L480.5 413L480.5 413L131.5 413z" stroke="#000000" stroke-width="1" fill="none" /><g transform="matrix(0.519403 0 0 0.5049505 132 379.5)"><g transform="matrix(1 0 0 1 0 0)"><image x="0" y="0" xlink:href="img_505.png" width="670" height="101" /></g></g><path transform="matrix(1 0 0 -1 0 792)" d="M72 298L540 298L540 298L540 349L540 349L72 349z" stroke="none" fill="#E0E0E0" fill-rule="winding" /><path transform="matrix(1 0 0 -1 0 792)" d="M72 298L540 298L540 298L540 349L540 349L72 349z" stroke="#AFAFAF" stroke-width="0.5" fill="none" /><path transform="matrix(1 0 0 -1 0 792)" d="M72 205L540 205L540 205L540 247L540 247L72 247z" stroke="none" fill="#E0E0E0" fill-rule="winding" /><path transform="matrix(1 0 0 -1 0 792)" d="M72 205L540 205L540 205L540 247L540 247L72 247z" stroke="#AFAFAF" stroke-width="0.5" fill="none" /><path transform="matrix(1 0 0 -1 0 792)" d="M72 96L540 96L540 96L540 116L540 116L72 116z" stroke="none" fill="#E0E0E0" fill-rule="winding" /><path transform="matrix(1 0 0 -1 0 792)" d="M72 96L540 96L540 96L540 116L540 116L72 116z" stroke="#AFAFAF" stroke-width="0.5" fill="none" /><g transform="matrix(0.09 0 0 0.09 72 738)"><g transform="matrix(1 0 0 1 0 0)"><image x="0" y="0" xlink:href="img_03.png" width="200" height="200" /></g></g></g></g></g></g></svg>