<svg xmlns="http://www.w3.org/2000/svg" xmlns:xlink="http://www.w3.org/1999/xlink" id="body_4" preserveAspectRatio="xMinYMin meet" viewBox="0 0 816 1056"><defs><clipPath id="1"><path d="M0 792L0 0L0 0L612 0L612 0L612 792L612 792L0 792z" /></clipPath><clipPath id="2"><path d="M0 792L612 792L612 792L612 0L612 0L0 0z" /></clipPath></defs><g transform="matrix(1.333333 0 0 1.333333 0 0)"><g><g clip-path="url(#1)"><g clip-path="url(#2)"><g transform="matrix(0.1518987 0 0 0.1499148 72 109)"><g transform="matrix(1 0 0 1 0 0)"><image x="0" y="0" xlink:href="img_07.png" width="553" height="587" /></g></g><path transform="matrix(1 0 0 -1 0 792)" d="M465.108 570.5L510.108 570.5" stroke="#21B8E7" stroke-width="1" fill="none" /><g transform="matrix(0.1621094 0 0 0.1640625 72 235)"><g transform="matrix(1 0 0 1 0 0)"><image x="0" y="0" xlink:href="img_08.png" width="512" height="512" /></g></g><path transform="matrix(1 0 0 -1 0 792)" d="M222.656 444.5L278.656 444.5" stroke="#21B8E7" stroke-width="1" fill="none" /><g transform="matrix(0.1621094 0 0 0.1640625 72 361)"><g transform="matrix(1 0 0 1 0 0)"><image x="0" y="0" xlink:href="img_09.png" width="512" height="512" /></g></g><path transform="matrix(1 0 0 -1 0 792)" d="M167 334.5L276 334.5" stroke="#21B8E7" stroke-width="1" fill="none" /><g transform="matrix(0.1976191 0 0 0.2 72 471)"><g transform="matrix(1 0 0 1 0 0)"><image x="0" y="0" xlink:href="img_10.png" width="420" height="420" /></g></g><path transform="matrix(1 0 0 -1 0 792)" d="M406.52 224.5L458.52 224.5" stroke="#21B8E7" stroke-width="1" fill="none" /><g transform="matrix(0.09 0 0 0.09 72 738)"><g transform="matrix(1 0 0 1 0 0)"><image x="0" y="0" xlink:href="img_03.png" width="200" height="200" /></g></g></g></g></g></g></svg>