<svg xmlns="http://www.w3.org/2000/svg" xmlns:xlink="http://www.w3.org/1999/xlink" id="body_246" preserveAspectRatio="xMinYMin meet" viewBox="0 0 816 1056"><defs><clipPath id="1"><path d="M0 792L0 0L0 0L612 0L612 0L612 792L612 792L0 792z" /></clipPath><clipPath id="2"><path d="M0 792L612 792L612 792L612 0L612 0L0 0z" /></clipPath></defs><g transform="matrix(1.333333 0 0 1.333333 0 0)"><g><g clip-path="url(#1)"><g clip-path="url(#2)"><path transform="matrix(1 0 0 -1 0 792)" d="M154.5 460L457.5 460L457.5 460L457.5 576L457.5 576L154.5 576z" stroke="#000000" stroke-width="1" fill="none" /><g transform="matrix(0.3069105 0 0 0.3042328 155 216.5)"><g transform="matrix(1 0 0 1 0 0)"><image x="0" y="0" xlink:href="img_378.png" width="984" height="378" /></g></g><path transform="matrix(1 0 0 -1 0 792)" d="M72 241L540 241L540 241L540 316L540 316L72 316z" stroke="none" fill="#E0E0E0" fill-rule="winding" /><path transform="matrix(1 0 0 -1 0 792)" d="M72 241L540 241L540 241L540 316L540 316L72 316z" stroke="#B0B0B0" stroke-width="0.5" fill="none" /><path transform="matrix(1 0 0 -1 0 792)" d="M72 73L540 73L540 73L540 104L540 104L72 104z" stroke="none" fill="#E0E0E0" fill-rule="winding" /><path transform="matrix(1 0 0 -1 0 792)" d="M72 73L540 73L540 73L540 104L540 104L72 104z" stroke="#B0B0B0" stroke-width="0.5" fill="none" /><g transform="matrix(0.09 0 0 0.09 72 738)"><g transform="matrix(1 0 0 1 0 0)"><image x="0" y="0" xlink:href="img_03.png" width="200" height="200" /></g></g></g></g></g></g></svg>