<svg xmlns="http://www.w3.org/2000/svg" xmlns:xlink="http://www.w3.org/1999/xlink" id="body_192" preserveAspectRatio="xMinYMin meet" viewBox="0 0 816 1056"><defs><clipPath id="1"><path d="M0 792L0 0L0 0L612 0L612 0L612 792L612 792L0 792z" /></clipPath><clipPath id="2"><path d="M0 792L612 792L612 792L612 0L612 0L0 0z" /></clipPath></defs><g transform="matrix(1.333333 0 0 1.333333 0 0)"><g><g clip-path="url(#1)"><g clip-path="url(#2)"><path transform="matrix(1 0 0 -1 0 792)" d="M72 665L540 665L540 665L540 696L540 696L72 696z" stroke="none" fill="#E0E0E0" fill-rule="winding" /><path transform="matrix(1 0 0 -1 0 792)" d="M72 665L540 665L540 665L540 696L540 696L72 696z" stroke="#AFAFAF" stroke-width="0.5" fill="none" /><g transform="matrix(0.2342886 0 0 0.2348755 73 364)"><g transform="matrix(1 0 0 1 0 0)"><image x="0" y="0" xlink:href="img_296.png" width="1989" height="843" /></g></g><path transform="matrix(1 0 0 -1 0 792)" d="M72 104L540 104L540 104L540 135L540 135L72 135z" stroke="none" fill="#E0E0E0" fill-rule="winding" /><path transform="matrix(1 0 0 -1 0 792)" d="M72 104L540 104L540 104L540 135L540 135L72 135z" stroke="#AFAFAF" stroke-width="0.5" fill="none" /><g transform="matrix(0.09 0 0 0.09 72 738)"><g transform="matrix(1 0 0 1 0 0)"><image x="0" y="0" xlink:href="img_03.png" width="200" height="200" /></g></g></g></g></g></g></svg>