<svg xmlns="http://www.w3.org/2000/svg" xmlns:xlink="http://www.w3.org/1999/xlink" id="body_395" preserveAspectRatio="xMinYMin meet" viewBox="0 0 816 1056"><defs><clipPath id="1"><path d="M0 792L0 0L0 0L612 0L612 0L612 792L612 792L0 792z" /></clipPath><clipPath id="2"><path d="M0 792L612 792L612 792L612 0L612 0L0 0z" /></clipPath></defs><g transform="matrix(1.333333 0 0 1.333333 0 0)"><g><g clip-path="url(#1)"><g clip-path="url(#2)"><g transform="matrix(0.3583162 0 0 0.3592233 131.5 97)"><g transform="matrix(1 0 0 1 0 0)"><image x="0" y="0" xlink:href="img_594.png" width="974" height="618" /></g></g><path transform="matrix(1 0 0 -1 0 792)" d="M190 219L422 219L422 219L422 403L422 403L190 403z" stroke="#000000" stroke-width="1" fill="none" /><g transform="matrix(0.3096515 0 0 0.3091216 190.5 389.5)"><g transform="matrix(1 0 0 1 0 0)"><image x="0" y="0" xlink:href="img_595.png" width="746" height="592" /></g></g><g transform="matrix(0.09 0 0 0.09 72 738)"><g transform="matrix(1 0 0 1 0 0)"><image x="0" y="0" xlink:href="img_03.png" width="200" height="200" /></g></g></g></g></g></g></svg>