<svg xmlns="http://www.w3.org/2000/svg" xmlns:xlink="http://www.w3.org/1999/xlink" id="body_286" preserveAspectRatio="xMinYMin meet" viewBox="0 0 816 1056"><defs><clipPath id="1"><path d="M0 792L0 0L0 0L612 0L612 0L612 792L612 792L0 792z" /></clipPath><clipPath id="2"><path d="M0 792L612 792L612 792L612 0L612 0L0 0z" /></clipPath></defs><g transform="matrix(1.333333 0 0 1.333333 0 0)"><g><g clip-path="url(#1)"><g clip-path="url(#2)"><g transform="matrix(0.1515481 0 0 0.1497326 166.5 180)"><g transform="matrix(1 0 0 1 0 0)"><image x="0" y="0" xlink:href="img_443.png" width="1841" height="187" /></g></g><g transform="matrix(0.1515481 0 0 0.1485149 166.5 245)"><g transform="matrix(1 0 0 1 0 0)"><image x="0" y="0" xlink:href="img_444.png" width="1841" height="404" /></g></g><path transform="matrix(1 0 0 -1 0 792)" d="M72 202L540 202L540 202L540 222L540 222L72 222z" stroke="none" fill="#E0E0E0" fill-rule="winding" /><path transform="matrix(1 0 0 -1 0 792)" d="M72 202L540 202L540 202L540 222L540 222L72 222z" stroke="#AFAFAF" stroke-width="0.5" fill="none" /><path transform="matrix(1 0 0 -1 0 792)" d="M72 91L540 91L540 91L540 155L540 155L72 155z" stroke="none" fill="#E0E0E0" fill-rule="winding" /><path transform="matrix(1 0 0 -1 0 792)" d="M72 91L540 91L540 91L540 155L540 155L72 155z" stroke="#AFAFAF" stroke-width="0.5" fill="none" /><g transform="matrix(0.09 0 0 0.09 72 738)"><g transform="matrix(1 0 0 1 0 0)"><image x="0" y="0" xlink:href="img_03.png" width="200" height="200" /></g></g></g></g></g></g></svg>