<svg xmlns="http://www.w3.org/2000/svg" xmlns:xlink="http://www.w3.org/1999/xlink" id="body_252" preserveAspectRatio="xMinYMin meet" viewBox="0 0 816 1056"><defs><clipPath id="1"><path d="M0 792L0 0L0 0L612 0L612 0L612 792L612 792L0 792z" /></clipPath><clipPath id="2"><path d="M0 792L612 792L612 792L612 0L612 0L0 0z" /></clipPath></defs><g transform="matrix(1.333333 0 0 1.333333 0 0)"><g><g clip-path="url(#1)"><g clip-path="url(#2)"><g transform="matrix(0.2183345 0 0 0.2181373 150 111)"><g transform="matrix(1 0 0 1 0 0)"><image x="0" y="0" xlink:href="img_390.png" width="1429" height="816" /></g></g><path transform="matrix(1 0 0 -1 0 792)" d="M72 413L540 413L540 413L540 433L540 433L72 433z" stroke="none" fill="#E0E0E0" fill-rule="winding" /><path transform="matrix(1 0 0 -1 0 792)" d="M72 413L540 413L540 413L540 433L540 433L72 433z" stroke="#AFAFAF" stroke-width="0.5" fill="none" /><path transform="matrix(1 0 0 -1 0 792)" d="M72 307L540 307L540 307L540 349L540 349L72 349z" stroke="none" fill="#E0E0E0" fill-rule="winding" /><path transform="matrix(1 0 0 -1 0 792)" d="M72 307L540 307L540 307L540 349L540 349L72 349z" stroke="#AFAFAF" stroke-width="0.5" fill="none" /><path transform="matrix(1 0 0 -1 0 792)" d="M201.5 140L410.5 140L410.5 140L410.5 260L410.5 260L201.5 260z" stroke="#000000" stroke-width="1" fill="none" /><g transform="matrix(0.2788204 0 0 0.275463 202 532.5)"><g transform="matrix(1 0 0 1 0 0)"><image x="0" y="0" xlink:href="img_391.png" width="746" height="432" /></g></g><g transform="matrix(0.09 0 0 0.09 72 738)"><g transform="matrix(1 0 0 1 0 0)"><image x="0" y="0" xlink:href="img_03.png" width="200" height="200" /></g></g></g></g></g></g></svg>