<svg xmlns="http://www.w3.org/2000/svg" xmlns:xlink="http://www.w3.org/1999/xlink" id="body_337" preserveAspectRatio="xMinYMin meet" viewBox="0 0 816 1056"><defs><clipPath id="1"><path d="M0 792L0 0L0 0L612 0L612 0L612 792L612 792L0 792z" /></clipPath><clipPath id="2"><path d="M0 792L612 792L612 792L612 0L612 0L0 0z" /></clipPath></defs><g transform="matrix(1.333333 0 0 1.333333 0 0)"><g><g clip-path="url(#1)"><g clip-path="url(#2)"><path transform="matrix(1 0 0 -1 0 792)" d="M72 610L540 610L540 610L540 652L540 652L72 652z" stroke="none" fill="#E0E0E0" fill-rule="winding" /><path transform="matrix(1 0 0 -1 0 792)" d="M72 610L540 610L540 610L540 652L540 652L72 652z" stroke="#AFAFAF" stroke-width="0.5" fill="none" /><g transform="matrix(0.2595887 0 0 0.2550725 72.5 575)"><g transform="matrix(1 0 0 1 0 0)"><image x="0" y="0" xlink:href="img_522.png" width="1799" height="345" /></g></g><g transform="matrix(0.09 0 0 0.09 72 738)"><g transform="matrix(1 0 0 1 0 0)"><image x="0" y="0" xlink:href="img_03.png" width="200" height="200" /></g></g></g></g></g></g></svg>