<svg xmlns="http://www.w3.org/2000/svg" xmlns:xlink="http://www.w3.org/1999/xlink" id="body_325" preserveAspectRatio="xMinYMin meet" viewBox="0 0 816 1056"><defs><clipPath id="1"><path d="M0 792L0 0L0 0L612 0L612 0L612 792L612 792L0 792z" /></clipPath><clipPath id="2"><path d="M0 792L612 792L612 792L612 0L612 0L0 0z" /></clipPath></defs><g transform="matrix(1.333333 0 0 1.333333 0 0)"><g><g clip-path="url(#1)"><g clip-path="url(#2)"><path transform="matrix(1 0 0 -1 0 792)" d="M72 612L540 612L540 612L540 654L540 654L72 654z" stroke="none" fill="#E0E0E0" fill-rule="winding" /><path transform="matrix(1 0 0 -1 0 792)" d="M72 612L540 612L540 612L540 654L540 654L72 654z" stroke="#B0B0B0" stroke-width="0.5" fill="none" /><path transform="matrix(1 0 0 -1 0 792)" d="M72 545L540 545L540 545L540 565L540 565L72 565z" stroke="none" fill="#E0E0E0" fill-rule="winding" /><path transform="matrix(1 0 0 -1 0 792)" d="M72 545L540 545L540 545L540 565L540 565L72 565z" stroke="#B0B0B0" stroke-width="0.5" fill="none" /><path transform="matrix(1 0 0 -1 0 792)" d="M225 458L387 458L387 458L387 498L387 498L225 498z" stroke="#000000" stroke-width="1" fill="none" /><g transform="matrix(0.7285068 0 0 0.7222222 225.5 294.5)"><g transform="matrix(1 0 0 1 0 0)"><image x="0" y="0" xlink:href="img_507.png" width="221" height="54" /></g></g><path transform="matrix(1 0 0 -1 0 792)" d="M225 381L387 381L387 381L387 421L387 421L225 421z" stroke="#000000" stroke-width="1" fill="none" /><g transform="matrix(0.7285068 0 0 0.7222222 225.5 371.5)"><g transform="matrix(1 0 0 1 0 0)"><image x="0" y="0" xlink:href="img_508.png" width="221" height="54" /></g></g><path transform="matrix(1 0 0 -1 0 792)" d="M72 275L540 275L540 275L540 295L540 295L72 295z" stroke="none" fill="#E0E0E0" fill-rule="winding" /><path transform="matrix(1 0 0 -1 0 792)" d="M72 275L540 275L540 275L540 295L540 295L72 295z" stroke="#AFAFAF" stroke-width="0.5" fill="none" /><path transform="matrix(1 0 0 -1 0 792)" d="M72 213L540 213L540 213L540 244L540 244L72 244z" stroke="none" fill="#E0E0E0" fill-rule="winding" /><path transform="matrix(1 0 0 -1 0 792)" d="M72 213L540 213L540 213L540 244L540 244L72 244z" stroke="#AFAFAF" stroke-width="0.5" fill="none" /><path transform="matrix(1 0 0 -1 0 792)" d="M72 88L540 88L540 88L540 141L540 141L72 141z" stroke="none" fill="#E0E0E0" fill-rule="winding" /><path transform="matrix(1 0 0 -1 0 792)" d="M72 88L540 88L540 88L540 141L540 141L72 141z" stroke="#AFAFAF" stroke-width="0.5" fill="none" /><g transform="matrix(0.09 0 0 0.09 72 738)"><g transform="matrix(1 0 0 1 0 0)"><image x="0" y="0" xlink:href="img_03.png" width="200" height="200" /></g></g></g></g></g></g></svg>