<svg xmlns="http://www.w3.org/2000/svg" xmlns:xlink="http://www.w3.org/1999/xlink" id="body_133" preserveAspectRatio="xMinYMin meet" viewBox="0 0 816 1056"><defs><clipPath id="1"><path d="M0 792L0 0L0 0L612 0L612 0L612 792L612 792L0 792z" /></clipPath><clipPath id="2"><path d="M0 792L612 792L612 792L612 0L612 0L0 0z" /></clipPath></defs><g transform="matrix(1.333333 0 0 1.333333 0 0)"><g><g clip-path="url(#1)"><g clip-path="url(#2)"><g transform="matrix(0.4193548 0 0 0.4210526 150 194)"><g transform="matrix(1 0 0 1 0 0)"><image x="0" y="0" xlink:href="img_203.png" width="744" height="114" /></g></g><g transform="matrix(0.4202899 0 0 0.4193548 190 279)"><g transform="matrix(1 0 0 1 0 0)"><image x="0" y="0" xlink:href="img_204.png" width="552" height="124" /></g></g><path transform="matrix(1 0 0 -1 0 792)" d="M72 319L540 319L540 319L540 350L540 350L72 350z" stroke="none" fill="#E0E0E0" fill-rule="winding" /><path transform="matrix(1 0 0 -1 0 792)" d="M72 319L540 319L540 319L540 350L540 350L72 350z" stroke="#AFAFAF" stroke-width="0.5" fill="none" /><path transform="matrix(1 0 0 -1 0 792)" d="M72 112L540 112L540 112L540 231L540 231L72 231z" stroke="none" fill="#E0E0E0" fill-rule="winding" /><path transform="matrix(1 0 0 -1 0 792)" d="M72 112L540 112L540 112L540 231L540 231L72 231z" stroke="#AFAFAF" stroke-width="0.5" fill="none" /><g transform="matrix(0.09 0 0 0.09 72 738)"><g transform="matrix(1 0 0 1 0 0)"><image x="0" y="0" xlink:href="img_03.png" width="200" height="200" /></g></g></g></g></g></g></svg>