<svg xmlns="http://www.w3.org/2000/svg" xmlns:xlink="http://www.w3.org/1999/xlink" id="body_423" preserveAspectRatio="xMinYMin meet" viewBox="0 0 816 1056"><defs><clipPath id="1"><path d="M0 792L0 0L0 0L612 0L612 0L612 792L612 792L0 792z" /></clipPath><clipPath id="2"><path d="M0 792L612 792L612 792L612 0L612 0L0 0z" /></clipPath></defs><g transform="matrix(1.333333 0 0 1.333333 0 0)"><g><g clip-path="url(#1)"><g clip-path="url(#2)"><path transform="matrix(1 0 0 -1 0 792)" d="M72 565L540 565L540 565L540 607L540 607L72 607z" stroke="none" fill="#E0E0E0" fill-rule="winding" /><path transform="matrix(1 0 0 -1 0 792)" d="M72 565L540 565L540 565L540 607L540 607L72 607z" stroke="#AFAFAF" stroke-width="0.5" fill="none" /><path transform="matrix(1 0 0 -1 0 792)" d="M190 266L422 266L422 266L422 374L422 374L190 374z" stroke="#000000" stroke-width="1" fill="none" /><g transform="matrix(0.4095744 0 0 0.4068441 190.5 418.5)"><g transform="matrix(1 0 0 1 0 0)"><image x="0" y="0" xlink:href="img_633.png" width="564" height="263" /></g></g><path transform="matrix(1 0 0 -1 0 792)" d="M72 176L540 176L540 176L540 196L540 196L72 196z" stroke="none" fill="#E0E0E0" fill-rule="winding" /><path transform="matrix(1 0 0 -1 0 792)" d="M72 176L540 176L540 176L540 196L540 196L72 196z" stroke="#AFAFAF" stroke-width="0.5" fill="none" /><g transform="matrix(0.09 0 0 0.09 72 738)"><g transform="matrix(1 0 0 1 0 0)"><image x="0" y="0" xlink:href="img_03.png" width="200" height="200" /></g></g></g></g></g></g></svg>