<svg xmlns="http://www.w3.org/2000/svg" xmlns:xlink="http://www.w3.org/1999/xlink" id="body_261" preserveAspectRatio="xMinYMin meet" viewBox="0 0 816 1056"><defs><clipPath id="1"><path d="M0 792L0 0L0 0L612 0L612 0L612 792L612 792L0 792z" /></clipPath><clipPath id="2"><path d="M0 792L612 792L612 792L612 0L612 0L0 0z" /></clipPath></defs><g transform="matrix(1.333333 0 0 1.333333 0 0)"><g><g clip-path="url(#1)"><g clip-path="url(#2)"><path transform="matrix(1 0 0 -1 0 792)" d="M238.368 651.5L387.368 651.5" stroke="#21B8E7" stroke-width="1" fill="none" /><path transform="matrix(1 0 0 -1 0 792)" d="M312.816 609.5L536.816 609.5" stroke="#21B8E7" stroke-width="1" fill="none" /><path transform="matrix(1 0 0 -1 0 792)" d="M72 593.5L113 593.5" stroke="#21B8E7" stroke-width="1" fill="none" /><path transform="matrix(1 0 0 -1 0 792)" d="M72 552.5L308 552.5" stroke="#21B8E7" stroke-width="1" fill="none" /><path transform="matrix(1 0 0 -1 0 792)" d="M72 482L540 482L540 482L540 502L540 502L72 502z" stroke="none" fill="#E0E0E0" fill-rule="winding" /><path transform="matrix(1 0 0 -1 0 792)" d="M72 482L540 482L540 482L540 502L540 502L72 502z" stroke="#AFAFAF" stroke-width="0.5" fill="none" /><g transform="matrix(0.1854677 0 0 0.1826281 75 559)"><g transform="matrix(1 0 0 1 0 0)"><image x="0" y="0" xlink:href="img_403.png" width="2491" height="449" /></g></g><g transform="matrix(0.09 0 0 0.09 72 738)"><g transform="matrix(1 0 0 1 0 0)"><image x="0" y="0" xlink:href="img_03.png" width="200" height="200" /></g></g></g></g></g></g></svg>