<svg xmlns="http://www.w3.org/2000/svg" xmlns:xlink="http://www.w3.org/1999/xlink" id="body_41" preserveAspectRatio="xMinYMin meet" viewBox="0 0 816 1056"><defs><clipPath id="1"><path d="M0 792L0 0L0 0L612 0L612 0L612 792L612 792L0 792z" /></clipPath><clipPath id="2"><path d="M0 792L612 792L612 792L612 0L612 0L0 0z" /></clipPath></defs><g transform="matrix(1.333333 0 0 1.333333 0 0)"><g><g clip-path="url(#1)"><g clip-path="url(#2)"><path transform="matrix(1 0 0 -1 0 792)" d="M72 642L540 642L540 642L540 662L540 662L72 662z" stroke="none" fill="#E0E0E0" fill-rule="winding" /><path transform="matrix(1 0 0 -1 0 792)" d="M72 642L540 642L540 642L540 662L540 662L72 662z" stroke="#AFAFAF" stroke-width="0.5" fill="none" /><path transform="matrix(1 0 0 -1 0 792)" d="M367.728 620.5L526.728 620.5" stroke="#21B8E7" stroke-width="1" fill="none" /><path transform="matrix(1 0 0 -1 0 792)" d="M72 604.5L215 604.5" stroke="#21B8E7" stroke-width="1" fill="none" /><path transform="matrix(1 0 0 -1 0 792)" d="M72 278L540 278L540 278L540 329L540 329L72 329z" stroke="none" fill="#E0E0E0" fill-rule="winding" /><path transform="matrix(1 0 0 -1 0 792)" d="M72 278L540 278L540 278L540 329L540 329L72 329z" stroke="#AFAFAF" stroke-width="0.5" fill="none" /><path transform="matrix(1 0 0 -1 0 792)" d="M340.512 207.5L498.512 207.5" stroke="#21B8E7" stroke-width="1" fill="none" /><path transform="matrix(1 0 0 -1 0 792)" d="M72 191.5L229 191.5" stroke="#21B8E7" stroke-width="1" fill="none" /><path transform="matrix(1 0 0 -1 0 792)" d="M72 136L540 136L540 136L540 156L540 156L72 156z" stroke="none" fill="#E0E0E0" fill-rule="winding" /><path transform="matrix(1 0 0 -1 0 792)" d="M72 136L540 136L540 136L540 156L540 156L72 156z" stroke="#AFAFAF" stroke-width="0.5" fill="none" /><g transform="matrix(0.09 0 0 0.09 72 738)"><g transform="matrix(1 0 0 1 0 0)"><image x="0" y="0" xlink:href="img_03.png" width="200" height="200" /></g></g></g></g></g></g></svg>