<svg xmlns="http://www.w3.org/2000/svg" xmlns:xlink="http://www.w3.org/1999/xlink" id="body_250" preserveAspectRatio="xMinYMin meet" viewBox="0 0 816 1056"><defs><clipPath id="1"><path d="M0 792L0 0L0 0L612 0L612 0L612 792L612 792L0 792z" /></clipPath><clipPath id="2"><path d="M0 792L612 792L612 792L612 0L612 0L0 0z" /></clipPath></defs><g transform="matrix(1.333333 0 0 1.333333 0 0)"><g><g clip-path="url(#1)"><g clip-path="url(#2)"><path transform="matrix(1 0 0 -1 0 792)" d="M72 639L540 639L540 639L540 720L540 720L72 720z" stroke="none" fill="#E0E0E0" fill-rule="winding" /><path transform="matrix(1 0 0 -1 0 792)" d="M72 639L540 639L540 639L540 720L540 720L72 720z" stroke="#AFAFAF" stroke-width="0.5" fill="none" /><g transform="matrix(0.2168079 0 0 0.2170543 152.5 476)"><g transform="matrix(1 0 0 1 0 0)"><image x="0" y="0" xlink:href="img_386.png" width="1416" height="258" /></g></g><g transform="matrix(0.2168079 0 0 0.2170088 152.5 619)"><g transform="matrix(1 0 0 1 0 0)"><image x="0" y="0" xlink:href="img_387.png" width="1416" height="341" /></g></g><g transform="matrix(0.09 0 0 0.09 72 738)"><g transform="matrix(1 0 0 1 0 0)"><image x="0" y="0" xlink:href="img_03.png" width="200" height="200" /></g></g></g></g></g></g></svg>