<svg xmlns="http://www.w3.org/2000/svg" xmlns:xlink="http://www.w3.org/1999/xlink" id="body_125" preserveAspectRatio="xMinYMin meet" viewBox="0 0 816 1056"><defs><clipPath id="1"><path d="M0 792L0 0L0 0L612 0L612 0L612 792L612 792L0 792z" /></clipPath><clipPath id="2"><path d="M0 792L612 792L612 792L612 0L612 0L0 0z" /></clipPath></defs><g transform="matrix(1.333333 0 0 1.333333 0 0)"><g><g clip-path="url(#1)"><g clip-path="url(#2)"><path transform="matrix(1 0 0 -1 0 792)" d="M72 700L540 700L540 700L540 720L540 720L72 720z" stroke="none" fill="#E0E0E0" fill-rule="winding" /><path transform="matrix(1 0 0 -1 0 792)" d="M72 700L540 700L540 700L540 720L540 720L72 720z" stroke="#AFAFAF" stroke-width="0.5" fill="none" /><path transform="matrix(1 0 0 -1 0 792)" d="M72 400L540 400L540 400L540 464L540 464L72 464z" stroke="none" fill="#E0E0E0" fill-rule="winding" /><path transform="matrix(1 0 0 -1 0 792)" d="M72 400L540 400L540 400L540 464L540 464L72 464z" stroke="#AFAFAF" stroke-width="0.5" fill="none" /><g transform="matrix(0.2617978 0 0 0.260355 73 423)"><g transform="matrix(1 0 0 1 0 0)"><image x="0" y="0" xlink:href="img_190.png" width="1780" height="338" /></g></g><g transform="matrix(0.2566079 0 0 0.2531646 73 564)"><g transform="matrix(1 0 0 1 0 0)"><image x="0" y="0" xlink:href="img_191.png" width="1816" height="316" /></g></g><g transform="matrix(0.09 0 0 0.09 72 738)"><g transform="matrix(1 0 0 1 0 0)"><image x="0" y="0" xlink:href="img_03.png" width="200" height="200" /></g></g></g></g></g></g></svg>