<svg xmlns="http://www.w3.org/2000/svg" xmlns:xlink="http://www.w3.org/1999/xlink" id="body_219" preserveAspectRatio="xMinYMin meet" viewBox="0 0 816 1056"><defs><clipPath id="1"><path d="M0 792L0 0L0 0L612 0L612 0L612 792L612 792L0 792z" /></clipPath><clipPath id="2"><path d="M0 792L612 792L612 792L612 0L612 0L0 0z" /></clipPath></defs><g transform="matrix(1.333333 0 0 1.333333 0 0)"><g><g clip-path="url(#1)"><g clip-path="url(#2)"><path transform="matrix(1 0 0 -1 0 792)" d="M201 550L411 550L411 550L411 592L411 592L201 592z" stroke="#000000" stroke-width="1" fill="none" /><g transform="matrix(0.280914 0 0 0.2645161 201.5 200.5)"><g transform="matrix(1 0 0 1 0 0)"><image x="0" y="0" xlink:href="img_335.png" width="744" height="155" /></g></g><path transform="matrix(1 0 0 -1 0 792)" d="M201.5 413L410.5 413L410.5 413L410.5 453L410.5 453L201.5 453z" stroke="#000000" stroke-width="1" fill="none" /><g transform="matrix(0.2799461 0 0 0.2746479 202 339.5)"><g transform="matrix(1 0 0 1 0 0)"><image x="0" y="0" xlink:href="img_336.png" width="743" height="142" /></g></g><g transform="matrix(0.09 0 0 0.09 72 738)"><g transform="matrix(1 0 0 1 0 0)"><image x="0" y="0" xlink:href="img_03.png" width="200" height="200" /></g></g></g></g></g></g></svg>